# xmcd
#
# Track frame offsets: 
#        150
#        17719
#        28816
#        37380
#        53869
#        61961
#        74699
#        86829
#        99226
#        105984
#        115173
#        126267
#        145292
#        155177
#        171084
#        188805
#        205758
#        219305
#        235934
#        251249
#
# Disc length: 3606 seconds
#
# Revision: 0
# Processed by: cddbd v1.5.1PL2 Copyright (c) Steve Scherf et al.
# Submitted via: ExactAudioCopy v0.95b4
#
DISCID=2b0e1414
DTITLE=Кукуруза - Антология CD 1
DYEAR=2006
DGENRE=Country
TTITLE0=Old Widow Woman
TTITLE1=She'll Be Coming Round The Mountain
TTITLE2=Clementine
TTITLE3=All The Pretty Little Horses
TTITLE4=O, No John
TTITLE5=Old Joe Clark
TTITLE6=Shenandoah
TTITLE7=Under The Double Eagle
TTITLE8=Dear Old Dixie
TTITLE9=Kentucky Bullfight
TTITLE10=Светит Месяц
TTITLE11=Костёр
TTITLE12=Пой, Вася!
TTITLE13=Птичий Рынок
TTITLE14=Фокусник
TTITLE15=Старенькая Скрипка
TTITLE16=Дорога
TTITLE17=Сушёный Фиг
TTITLE18=Пейзаж
TTITLE19=За Камень
EXTD=
EXTT0=
EXTT1=
EXTT2=
EXTT3=
EXTT4=
EXTT5=
EXTT6=
EXTT7=
EXTT8=
EXTT9=
EXTT10=
EXTT11=
EXTT12=
EXTT13=
EXTT14=
EXTT15=
EXTT16=
EXTT17=
EXTT18=
EXTT19=
PLAYORDER=
